<svg width="30" height="21" viewBox="0 0 30 21" fill="none" xmlns="http://www.w3.org/2000/svg">
<path d="M29.2342 7.67732V4.85315C29.2342 4.23896 28.7407 3.74542 28.1265 3.74542H12.8651C11.73 1.59576 9.45421 0.120605 6.87682 0.120605C3.13139 0.120605 0.0878906 3.15865 0.0878906 6.90958C0.0878906 9.98053 2.14431 12.5908 4.94105 13.4189V19.5608C4.94105 20.175 5.43459 20.6685 6.04877 20.6685H28.1923C28.8065 20.6685 29.3 20.175 29.3 19.5608V10.4741H12.6842C13.1777 9.64601 13.5122 8.69183 13.6054 7.71022H29.2342V7.67732ZM1.34916 6.96991C1.34916 3.93187 3.8059 1.47511 6.84392 1.47511C9.88194 1.47511 12.3387 3.93187 12.3387 6.96991C12.3387 10.0079 9.88194 12.4647 6.84392 12.4647C3.8059 12.4702 1.34916 9.98053 1.34916 6.96991ZM11.2364 17.7785C11.2364 17.9321 11.1158 18.0856 10.9293 18.0856H8.10519C7.95165 18.0856 7.7981 17.965 7.7981 17.7785V16.9505C7.7981 16.7969 7.91874 16.6434 8.10519 16.6434H10.9293C11.0829 16.6434 11.2364 16.764 11.2364 16.9505V17.7785ZM22.9059 16.9834C22.9059 16.8298 23.0266 16.6763 23.213 16.6763H26.0701C26.2236 16.6763 26.3772 16.7969 26.3772 16.9834V17.8114C26.3772 17.965 26.2565 18.1185 26.0701 18.1185H23.213C23.0595 18.1185 22.9059 17.9979 22.9059 17.8114V16.9834ZM17.8718 16.9834C17.8718 16.8298 17.9925 16.6763 18.1789 16.6763H21.036C21.1895 16.6763 21.3431 16.7969 21.3431 16.9834V17.8114C21.3431 17.965 21.2224 18.1185 21.036 18.1185H18.1789C18.0254 18.1185 17.8718 17.9979 17.8718 17.8114V16.9834ZM12.8377 16.9834C12.8377 16.8298 12.9583 16.6763 13.1448 16.6763H15.9689C16.1225 16.6763 16.276 16.7969 16.276 16.9834V17.8114C16.276 17.965 16.1554 18.1185 15.9689 18.1185H13.1448C12.9913 18.1185 12.8377 17.9979 12.8377 17.8114V16.9834Z" fill="#ED1C24"/>
</svg>
