<svg width="26" height="16" viewBox="0 0 26 16" fill="none" xmlns="http://www.w3.org/2000/svg">
<path fill-rule="evenodd" clip-rule="evenodd" d="M24.7675 0.213832C25.4906 0.229109 25.4549 1.34937 24.7675 1.35446H19.9911C19.0695 4.63376 18.1427 7.89779 17.2109 11.1822C17.6182 11.2993 17.9594 11.5132 18.2191 11.7881C18.6214 12.221 18.8098 12.7913 18.8098 13.3463C18.8047 13.9065 18.6112 14.4717 18.2038 14.9045C17.7964 15.3373 17.1701 15.6072 16.4419 15.6072H4.46027C4.3126 15.6072 4.16493 15.5512 4.05799 15.4494C3.95106 15.3424 3.88995 15.1897 3.88995 15.0369C3.88995 14.8892 3.95615 14.7416 4.05799 14.6346C4.15983 14.5277 4.30751 14.4666 4.46027 14.4666H16.4369C16.8951 14.4666 17.1701 14.324 17.3636 14.1203C17.5571 13.9166 17.664 13.6264 17.664 13.3361C17.664 13.0459 17.5673 12.7709 17.3789 12.5672C17.1905 12.3635 16.9257 12.221 16.4623 12.221H3.42657C3.30436 12.221 3.18725 12.1802 3.0905 12.1039C2.99375 12.0326 2.92246 11.9256 2.88681 11.8085L0.274573 3.05522C0.167639 2.65294 0.437519 2.30159 0.814334 2.31686H18.5297L19.0084 0.621199C19.0847 0.320766 19.2681 0.224016 19.5532 0.20874L24.7675 0.213832ZM13.9977 3.45749H11.8642V11.0854H13.9927V3.45749H13.9977ZM10.7235 3.45749H8.4932V11.0854H10.7235V3.45749ZM7.35766 3.45749H5.42267V11.0854H7.35766V3.45749Z" fill="#f38760"/>
</svg>
