<svg width="25" height="19" viewBox="0 0 25 19" fill="none" xmlns="http://www.w3.org/2000/svg">
<path d="M21.5 5H18.125V0.5H2.375C1.1375 0.5 0.125 1.5125 0.125 2.75V15.125H2.375C2.375 16.9925 3.8825 18.5 5.75 18.5C7.6175 18.5 9.125 16.9925 9.125 15.125H15.875C15.875 16.9925 17.3825 18.5 19.25 18.5C21.1175 18.5 22.625 16.9925 22.625 15.125H24.875V9.5L21.5 5ZM5.75 16.8125C4.81625 16.8125 4.0625 16.0588 4.0625 15.125C4.0625 14.1912 4.81625 13.4375 5.75 13.4375C6.68375 13.4375 7.4375 14.1912 7.4375 15.125C7.4375 16.0588 6.68375 16.8125 5.75 16.8125ZM20.9375 6.6875L23.1425 9.5H18.125V6.6875H20.9375ZM19.25 16.8125C18.3162 16.8125 17.5625 16.0588 17.5625 15.125C17.5625 14.1912 18.3162 13.4375 19.25 13.4375C20.1838 13.4375 20.9375 14.1912 20.9375 15.125C20.9375 16.0588 20.1838 16.8125 19.25 16.8125Z" fill="#ED1C24"/>
</svg>
